<svg preserveAspectRatio="none" width="100%" height="100%" overflow="visible" style="display: block;" viewBox="0 0 24.7997 24.9297" fill="none" xmlns="http://www.w3.org/2000/svg">
<path id="Vector" d="M24.791 14.3C23.0837 13.338 21.9917 12.857 21.5107 12.857C21.1597 12.857 20.8867 13.1257 20.6917 13.663C20.4967 14.2003 20.1023 14.4647 19.513 14.4647C19.2703 14.4647 18.7807 14.378 18.0353 14.2047C17.6193 14.8373 17.4113 15.2447 17.4113 15.418C17.4113 15.6607 17.589 15.9423 17.9487 16.2717C18.3083 16.601 18.6073 16.7613 18.8543 16.7613C19.0103 16.7613 19.2227 16.731 19.4913 16.6617C19.76 16.5967 19.9377 16.562 20.0287 16.562C20.2973 16.562 20.4317 17.056 20.4317 18.0397C20.4317 18.98 20.215 20.423 19.7773 22.3687C19.2097 20.137 18.6073 19.0233 17.9747 19.0233C17.888 19.0233 17.706 19.0883 17.433 19.2227C17.16 19.3527 16.9563 19.4177 16.8263 19.4177C16.1937 19.4177 15.626 18.837 15.119 17.68C14.1137 17.8317 13.611 18.3473 13.611 19.2227C13.611 19.6603 13.8147 20.0113 14.2177 20.2713C14.6207 20.5357 14.8243 20.722 14.8243 20.8303C14.8243 21.4197 13.962 22.3297 12.233 23.5517C11.3143 24.206 10.6817 24.6653 10.3307 24.9297C10.634 24.5353 10.9417 24.024 11.2493 23.387C11.6003 22.6677 11.7737 22.1087 11.7737 21.7143C11.7737 21.4977 11.5223 21.19 11.0197 20.7957C10.517 20.4013 10.2657 19.9853 10.2657 19.5477C10.2657 19.175 10.3957 18.7157 10.66 18.1697C10.374 17.8403 10.036 17.6757 9.64167 17.6757C8.76633 17.6757 8.32867 17.9617 8.32867 18.5293C8.32867 18.135 8.32867 18.4297 8.32867 19.4133C8.35033 20.137 7.80433 20.4967 6.68633 20.4967C5.83267 20.4967 4.40267 20.2973 2.38767 19.9073C4.66267 19.3397 5.798 18.681 5.798 17.94C5.798 18.0267 5.75467 17.7667 5.668 17.1513C5.58133 16.4753 6.06233 15.86 7.111 15.314C6.916 14.3087 6.39167 13.806 5.538 13.806C5.408 13.806 5.16533 14.0357 4.81867 14.495C4.46767 14.9543 4.14267 15.184 3.835 15.184C3.31067 15.184 2.63033 14.6163 1.80267 13.4767C1.40833 12.909 0.806 12.0683 0 10.9503C0.502667 11.2147 1.00533 11.4747 1.508 11.739C2.16233 12.0467 2.691 12.1983 3.081 12.1983C3.38867 12.1983 3.68767 11.9297 3.98233 11.3923C4.277 10.855 4.667 10.5863 5.148 10.5863C5.213 10.5863 5.65067 10.7163 6.461 10.9807C6.877 10.348 7.085 9.87567 7.085 9.568C7.085 9.30367 6.92467 9.00467 6.60833 8.66667C6.292 8.32867 6.00167 8.15967 5.73733 8.15967C5.629 8.15967 5.46 8.19433 5.23033 8.25933C5.00067 8.32433 4.83167 8.359 4.72333 8.359C4.329 8.359 4.134 7.865 4.134 6.88133C4.134 6.617 4.38533 5.122 4.888 2.38767C4.86633 2.717 5.00933 3.328 5.31267 4.225C5.68533 5.317 6.123 5.86733 6.62567 5.86733C6.71233 5.86733 6.89 5.80233 7.15 5.67233C7.41433 5.54233 7.618 5.47733 7.774 5.47733C8.27667 5.47733 8.69267 5.76333 9.022 6.331L9.516 7.215C9.97533 7.215 10.3567 7.05033 10.6643 6.72533C10.972 6.396 11.1237 6.00167 11.1237 5.54233C11.1237 5.06133 10.92 4.693 10.517 4.44167C10.1097 4.19033 9.91033 3.99967 9.91033 3.86967C9.91033 3.41033 10.634 2.63467 12.077 1.54267C13.234 0.667333 13.9923 0.156 14.339 0C13.3987 1.26967 12.9263 2.197 12.9263 2.78633C12.9263 3.094 13.1127 3.419 13.4853 3.77C13.9447 4.186 14.209 4.48067 14.274 4.654C14.4907 5.15667 14.469 5.84567 14.209 6.721C14.7983 7.137 15.249 7.345 15.5523 7.345C16.185 7.345 16.5013 7.01567 16.5013 6.36133C16.5013 6.29633 16.4753 6.08833 16.419 5.73733C16.3627 5.38633 16.3497 5.19133 16.3713 5.148C16.458 4.84033 17.0603 4.68867 18.174 4.68867C18.876 4.68867 20.3277 4.88367 22.5377 5.278C22.0567 5.408 21.333 5.60733 20.371 5.86733C19.4957 6.13167 19.058 6.42633 19.058 6.75133C19.058 6.903 19.1143 7.16733 19.2227 7.54C19.331 7.91267 19.3873 8.18567 19.3873 8.359C19.3873 8.66667 19.1923 8.94833 18.798 9.21267L17.6843 10.0013C17.9487 10.4823 18.122 10.7683 18.2087 10.855C18.4253 11.1193 18.7243 11.2493 19.0927 11.2493C19.357 11.2493 19.5953 11.0197 19.8163 10.5603C20.033 10.101 20.384 9.87133 20.865 9.87133C21.4543 9.87133 22.1217 10.4173 22.867 11.5137C23.283 12.129 23.9287 13.0563 24.7997 14.3043L24.791 14.3ZM17.5197 12.402C17.5197 11.0023 17.004 9.789 15.977 8.762C14.95 7.735 13.7367 7.21933 12.337 7.21933C10.9157 7.21933 9.68933 7.72633 8.66233 8.74467C7.63533 9.763 7.111 10.9807 7.08933 12.402C7.06767 13.8017 7.58767 15.0107 8.64933 16.0247C9.711 17.043 10.9417 17.55 12.3413 17.55C13.8277 17.55 15.0713 17.0647 16.0637 16.0897C17.0603 15.119 17.5457 13.8883 17.524 12.402H17.5197ZM17.03 12.402C17.03 13.7367 16.5837 14.8417 15.6867 15.7127C14.7897 16.588 13.676 17.0257 12.3413 17.0257C11.05 17.0257 9.945 16.5793 9.03067 15.6823C8.112 14.7853 7.65267 13.6933 7.65267 12.402C7.65267 11.1323 8.11633 10.0447 9.048 9.139C9.97967 8.23333 11.076 7.77833 12.3457 7.77833C13.6153 7.77833 14.7117 8.23767 15.6433 9.15633C16.5707 10.075 17.0387 11.1583 17.0387 12.402" fill="var(--fill-0, #211D15)"/>
</svg>
