<svg preserveAspectRatio="none" width="100%" height="100%" overflow="visible" style="display: block;" viewBox="0 0 95.6772 74.9184" fill="none" xmlns="http://www.w3.org/2000/svg">
<g id="outer" filter="url(#filter0_ddii_0_235)">
<path d="M13.3445 24.4629C12.8584 23.9008 12.9693 22.938 13.6315 22.6008C20.1082 19.3026 46.3143 6 47.6654 6C49.029 6 75.7121 19.5512 81.8748 22.6902C82.495 23.0061 82.6289 23.8696 82.2315 24.4411C81.0206 26.1825 79.0245 30.0833 79.0245 36.876C79.0245 42.3348 82.2509 50.3633 83.5917 53.4641C83.8658 54.0978 83.4521 54.8201 82.7646 54.8835C77.6713 55.3534 59.7986 56.9184 47.6654 56.9184C35.8101 56.9184 18.4752 55.4243 12.936 54.9175C12.1567 54.8462 11.7494 53.9331 12.1664 53.2709C13.9133 50.4967 17.3344 44.1369 17.3344 36.876C17.3344 30.1115 14.86 26.215 13.3445 24.4629Z" fill="url(#paint0_linear_0_235)"/>
</g>
<defs>
<filter id="filter0_ddii_0_235" x="-3.57628e-07" y="0" width="95.6772" height="74.9184" filterUnits="userSpaceOnUse" color-interpolation-filters="sRGB">
<feFlood flood-opacity="0" result="BackgroundImageFix"/>
<feColorMatrix in="SourceAlpha" type="matrix" values="0 0 0 0 0 0 0 0 0 0 0 0 0 0 0 0 0 0 127 0" result="hardAlpha"/>
<feOffset dy="6"/>
<feGaussianBlur stdDeviation="6"/>
<feColorMatrix type="matrix" values="0 0 0 0 0 0 0 0 0 0 0 0 0 0 0 0 0 0 0.4 0"/>
<feBlend mode="normal" in2="BackgroundImageFix" result="effect1_dropShadow_0_235"/>
<feColorMatrix in="SourceAlpha" type="matrix" values="0 0 0 0 0 0 0 0 0 0 0 0 0 0 0 0 0 0 127 0" result="hardAlpha"/>
<feOffset dy="2"/>
<feGaussianBlur stdDeviation="2"/>
<feColorMatrix type="matrix" values="0 0 0 0 0 0 0 0 0 0 0 0 0 0 0 0 0 0 0.65 0"/>
<feBlend mode="normal" in2="effect1_dropShadow_0_235" result="effect2_dropShadow_0_235"/>
<feBlend mode="normal" in="SourceGraphic" in2="effect2_dropShadow_0_235" result="shape"/>
<feColorMatrix in="SourceAlpha" type="matrix" values="0 0 0 0 0 0 0 0 0 0 0 0 0 0 0 0 0 0 127 0" result="hardAlpha"/>
<feOffset dx="1" dy="-1"/>
<feGaussianBlur stdDeviation="1"/>
<feComposite in2="hardAlpha" operator="arithmetic" k2="-1" k3="1"/>
<feColorMatrix type="matrix" values="0 0 0 0 0.223529 0 0 0 0 0.184314 0 0 0 0 0.145098 0 0 0 0.6 0"/>
<feBlend mode="normal" in2="shape" result="effect3_innerShadow_0_235"/>
<feColorMatrix in="SourceAlpha" type="matrix" values="0 0 0 0 0 0 0 0 0 0 0 0 0 0 0 0 0 0 127 0" result="hardAlpha"/>
<feOffset dx="-1" dy="1"/>
<feGaussianBlur stdDeviation="1"/>
<feComposite in2="hardAlpha" operator="arithmetic" k2="-1" k3="1"/>
<feColorMatrix type="matrix" values="0 0 0 0 0.882422 0 0 0 0 0.87413 0 0 0 0 0.832671 0 0 0 1 0"/>
<feBlend mode="normal" in2="effect3_innerShadow_0_235" result="effect4_innerShadow_0_235"/>
</filter>
<linearGradient id="paint0_linear_0_235" x1="47.6654" y1="6" x2="47.6654" y2="56.9184" gradientUnits="userSpaceOnUse">
<stop stop-color="#E9EAEC"/>
<stop offset="0.385417" stop-color="#E7E6E5"/>
<stop offset="0.71875" stop-color="#DFDFE1"/>
<stop offset="1" stop-color="#DFDEE3"/>
</linearGradient>
</defs>
</svg>
