<svg preserveAspectRatio="none" width="100%" height="100%" overflow="visible" style="display: block;" viewBox="0 0 624 850" fill="none" xmlns="http://www.w3.org/2000/svg">
<path d="M0 32C0 20.7989 0 15.1984 2.17987 10.9202C4.09734 7.15695 7.15695 4.09734 10.9202 2.17987C15.1984 0 20.7989 0 32 0H592C603.201 0 608.802 0 613.08 2.17987C616.843 4.09734 619.903 7.15695 621.82 10.9202C624 15.1984 624 20.7989 624 32V700C624 754 624 781 613.406 801.5C604.088 819.5 589.221 834 570.94 843C550.157 853 522.955 853 468.551 853L154.951 852.5C100.705 852.4 73.5816 852.4 52.866 841.8C34.6436 832.5 19.8325 817.7 10.5512 799.4C0 778.7 0 751.6 0 697.3V32Z" fill="var(--fill-0, #3B90B9)"/>
</svg>
