<svg preserveAspectRatio="none" width="100%" height="100%" overflow="visible" style="display: block;" viewBox="0 0 624 846.766" fill="none" xmlns="http://www.w3.org/2000/svg">
<g id="shadowEffect-masked">
<mask id="mask0_0_543" style="mask-type:alpha" maskUnits="userSpaceOnUse" x="0" y="0" width="624" height="847">
<path id="mask" d="M0 32C0 20.7989 0 15.1984 2.17987 10.9202C4.09734 7.15695 7.15695 4.09734 10.9202 2.17987C15.1984 0 20.7989 0 32 0H592C603.201 0 608.802 0 613.08 2.17987C616.843 4.09734 619.903 7.15695 621.82 10.9202C624 15.1984 624 20.799 624 32V691.551C624 745.955 624 773.157 613.406 793.923C604.088 812.189 589.221 827.033 570.94 836.321C550.157 846.882 522.955 846.838 468.551 846.751L154.951 846.248C100.705 846.161 73.5816 846.118 52.866 835.534C34.6436 826.223 19.8325 811.388 10.5512 793.151C0 772.418 0 745.295 0 691.049V32Z" fill="var(--fill-0, black)"/>
</mask>
<g mask="url(#mask0_0_543)">
<g id="stroke with effects" filter="url(#filter0_d_0_543)">
<path d="M24.0675 10.9976L23.0633 10.0076C22.8313 9.77889 22.8287 9.40537 23.0574 9.17335C23.1683 9.0609 23.3196 8.99759 23.4775 8.99759H601.522C601.68 8.99759 601.832 9.0609 601.943 9.17335C602.171 9.40537 602.169 9.77889 601.937 10.0076L600.933 10.9976M24.0675 10.9976C22.6432 9.59346 22.6425 9.59416 22.6418 9.59489L22.6402 9.59656L22.6362 9.60061L22.6255 9.61157L22.5934 9.64486C22.5674 9.67211 22.532 9.70948 22.488 9.75693C22.4 9.85182 22.2773 9.98707 22.125 10.1624C21.8204 10.5131 21.3968 11.0246 20.8943 11.6947C19.8896 13.0345 18.5672 15.012 17.2499 17.61C14.6129 22.8109 12 30.4939 12 40.4976C12 50.5013 14.6129 58.1843 17.2499 63.3852C18.5672 65.9832 19.8896 67.9607 20.8943 69.3005C21.3968 69.9706 21.8204 70.4821 22.125 70.8327C22.2773 71.0081 22.4 71.1434 22.488 71.2383C22.532 71.2857 22.5674 71.3231 22.5934 71.3503L22.6255 71.3836L22.6362 71.3946L22.6402 71.3986L22.6418 71.4003C22.6425 71.401 22.6432 71.4017 24.0675 69.9976M24.0675 10.9976C24.0675 10.9976 14 21.2091 14 40.4976C14 59.7861 24.0675 69.9976 24.0675 69.9976M24.0675 10.9976H600.933M24.0675 69.9976L23.0633 70.9875C22.8313 71.2163 22.8287 71.5898 23.0574 71.8218L23.0714 71.836C23.1733 71.9394 23.3124 71.9976 23.4576 71.9976C23.7572 71.9976 24 72.2404 24 72.54V491.479C24 491.767 23.7667 492 23.479 492C23.3458 492 23.2177 492.051 23.121 492.142L23.107 492.156C22.8786 492.372 22.8685 492.732 23.0845 492.96L24 493.929C22.6933 492.547 22.6926 492.547 22.6919 492.548L22.6902 492.55L22.6753 492.564L22.6428 492.595C22.6165 492.621 22.5809 492.656 22.5366 492.701C22.448 492.79 22.3247 492.916 22.1717 493.081C21.8657 493.409 21.4404 493.888 20.936 494.515C19.9277 495.768 18.5998 497.619 17.2768 500.052C14.6279 504.922 12 512.123 12 521.5C12 530.877 14.6279 538.078 17.2768 542.948C18.5998 545.381 19.9277 547.232 20.936 548.485C21.4404 549.112 21.8657 549.591 22.1717 549.919C22.3247 550.084 22.448 550.21 22.5366 550.299C22.5809 550.344 22.6165 550.379 22.6428 550.405L22.6753 550.436L22.6862 550.446L22.6902 550.45L22.6919 550.452C22.6926 550.453 22.6933 550.453 24 549.071L23.0845 550.04C22.8685 550.268 22.8786 550.628 23.107 550.844L23.121 550.858C23.2177 550.949 23.3458 551 23.479 551C23.7667 551 24 551.233 24 551.521V833C24 834.105 24.8954 835 26 835H600C601.105 835 602 834.105 602 833V550.87C602 550.789 602.033 550.712 602.092 550.656C602.211 550.544 602.216 550.357 602.104 550.239L602 550.129M24.0675 69.9976H600.096C600.631 69.9976 601.138 69.7889 601.485 69.3815C603.592 66.9101 611 57.0435 611 40.4976C611 21.2091 600.933 10.9976 600.933 10.9976M600.933 10.9976C602.357 9.59346 602.357 9.59416 602.358 9.59489L602.36 9.59656L602.364 9.60061L602.374 9.61157L602.407 9.64486C602.433 9.67211 602.468 9.70948 602.512 9.75693C602.6 9.85182 602.723 9.98707 602.875 10.1624C603.18 10.5131 603.603 11.0246 604.106 11.6947C605.11 13.0345 606.433 15.012 607.75 17.61C610.387 22.8109 613 30.4939 613 40.4976C613 50.5013 610.387 58.1843 607.75 63.3852C606.433 65.9832 605.11 67.9607 604.106 69.3005C603.603 69.9706 603.18 70.4821 602.875 70.8327C602.723 71.0081 602.6 71.1434 602.512 71.2383C602.468 71.2857 602.433 71.3231 602.407 71.3503L602.374 71.3836L602.364 71.3946L602.36 71.3986L602.358 71.4003C602.358 71.4008 602.357 71.4013 602 71.0499M602 71.0499L602.105 71.1537C602.244 71.2907 602.246 71.5143 602.109 71.6532L602.104 71.6583C602.037 71.7258 602 71.8167 602 71.9114V492.13C602 492.211 602.033 492.288 602.092 492.344C602.211 492.456 602.216 492.643 602.104 492.761L602 492.871M602 71.0499C602 71.0498 602 71.0498 602 71.0499ZM602 550.129C602.307 550.453 602.308 550.452 602.308 550.452L602.31 550.45L602.314 550.446L602.325 550.436L602.357 550.405L602.395 550.367C602.415 550.348 602.438 550.325 602.463 550.299C602.552 550.21 602.675 550.084 602.828 549.919C603.134 549.591 603.56 549.112 604.064 548.485C605.072 547.232 606.4 545.381 607.723 542.948C610.372 538.078 613 530.877 613 521.5C613 512.123 610.372 504.922 607.723 500.052C606.4 497.619 605.072 495.768 604.064 494.515C603.56 493.888 603.134 493.409 602.828 493.081C602.675 492.916 602.552 492.79 602.463 492.701C602.419 492.656 602.383 492.621 602.357 492.595L602.325 492.564L602.314 492.554L602.31 492.55L602.308 492.548C602.308 492.548 602.307 492.547 602 492.871M602 550.129C602 550.129 602 550.129 602 550.129ZM602 492.871C602 492.871 602 492.871 602 492.871ZM14 521.5C14 506.059 21.4239 496.858 23.5215 494.567C23.8665 494.19 24.3522 494 24.8633 494H600.137C600.648 494 601.133 494.19 601.479 494.567C603.576 496.858 611 506.059 611 521.5C611 536.941 603.576 546.142 601.479 548.433C601.133 548.81 600.648 549 600.137 549H24.8633C24.3522 549 23.8665 548.81 23.5215 548.433C21.4239 546.142 14 536.941 14 521.5ZM600 831V553C600 551.895 599.105 551 598 551H28C26.8954 551 26 551.895 26 553V831C26 832.105 26.8954 833 28 833H598C599.105 833 600 832.105 600 831ZM26 490V75C26 73.8954 26.8954 73 28 73H598C599.105 73 600 73.8954 600 75V490C600 491.105 599.105 492 598 492H28C26.8954 492 26 491.105 26 490Z" stroke="var(--stroke-0, #C5432B)" stroke-width="5"/>
</g>
</g>
</g>
<defs>
<filter id="filter0_d_0_543" x="9.5" y="2.49759" width="610.5" height="835.002" filterUnits="userSpaceOnUse" color-interpolation-filters="sRGB">
<feFlood flood-opacity="0" result="BackgroundImageFix"/>
<feColorMatrix in="SourceAlpha" type="matrix" values="0 0 0 0 0 0 0 0 0 0 0 0 0 0 0 0 0 0 127 0" result="hardAlpha"/>
<feOffset dx="3.5" dy="-3"/>
<feGaussianBlur stdDeviation="0.5"/>
<feColorMatrix type="matrix" values="0 0 0 0 1 0 0 0 0 1 0 0 0 0 1 0 0 0 0.2 0"/>
<feBlend mode="lighten" in2="BackgroundImageFix" result="effect1_dropShadow_0_543"/>
<feBlend mode="normal" in="SourceGraphic" in2="effect1_dropShadow_0_543" result="shape"/>
</filter>
</defs>
</svg>
